<svg xmlns="http://www.w3.org/2000/svg" xmlns:xlink="http://www.w3.org/1999/xlink" width="500" zoomAndPan="magnify" viewBox="0 0 375 374.999991" height="500" preserveAspectRatio="xMidYMid meet" version="1.0"><path stroke-linecap="butt" transform="matrix(4.100964, 0, 0, 4.0983, -17505.287566, 1335.1478)" fill-opacity="1" fill="#005500" fill-rule="nonzero" stroke-linejoin="miter" d="M 4320.200546 -322.849965 C 4298.945063 -325.749414 4303.597171 -310.67552 4295.380733 -297.746189 C 4312.77851 -300.963033 4314.692123 -313.76941 4320.200546 -322.849965 Z M 4320.200546 -322.849965 " stroke="#000000" stroke-width="0.754" stroke-opacity="1" stroke-miterlimit="4"/><path fill="#000000" d="M 122.882812 224.066406 C 165.199219 154.46875 197.863281 112.589844 211.300781 12.167969 C 211.726562 8.972656 221.492188 6.195312 222.851562 10.578125 C 269.921875 108.277344 264.03125 156.203125 268.214844 248.507812 L 257.507812 249.753906 C 264.332031 162.46875 251.585938 69.613281 221.328125 21.589844 C 219.015625 17.917969 214.453125 17.75 213.742188 23.179688 C 207.71875 98.703125 168.902344 162.890625 132.796875 226.859375 Z M 122.882812 224.066406 " fill-opacity="1" fill-rule="nonzero"/><path fill="#d40000" d="M 183.972656 293.550781 C 170.792969 337.070312 128.347656 362.429688 89.171875 350.191406 C 49.992188 337.949219 28.914062 292.746094 42.09375 249.226562 C 55.269531 205.707031 88.050781 186.621094 129.183594 218.046875 C 170.871094 216.296875 201.15625 236.800781 183.972656 293.550781 Z M 183.972656 293.550781 " fill-opacity="1" fill-rule="nonzero"/><path fill="#aa0000" d="M 346.582031 274.167969 C 353.644531 319.855469 325.949219 362.058594 284.71875 368.421875 C 243.492188 374.789062 204.34375 342.90625 197.28125 297.214844 C 190.21875 251.523438 211.824219 219.386719 263.273438 229.6875 C 300.648438 209.410156 337.371094 214.585938 346.582031 274.167969 Z M 346.582031 274.167969 " fill-opacity="1" fill-rule="nonzero"/><path fill="#ffffff" d="M 86.382812 229.832031 C 86.300781 230.589844 86.15625 231.332031 85.949219 232.0625 C 85.738281 232.789062 85.472656 233.488281 85.148438 234.160156 C 84.820312 234.832031 84.441406 235.464844 84.011719 236.054688 C 83.578125 236.644531 83.105469 237.179688 82.585938 237.664062 C 82.066406 238.148438 81.511719 238.574219 80.921875 238.933594 C 80.332031 239.296875 79.722656 239.589844 79.085938 239.8125 C 78.453125 240.035156 77.808594 240.1875 77.152344 240.265625 C 76.496094 240.34375 75.839844 240.347656 75.1875 240.277344 C 74.535156 240.203125 73.898438 240.0625 73.273438 239.84375 C 72.648438 239.625 72.050781 239.339844 71.480469 238.984375 C 70.910156 238.628906 70.375 238.210938 69.878906 237.734375 C 69.378906 237.253906 68.929688 236.722656 68.527344 236.136719 C 68.125 235.550781 67.773438 234.921875 67.480469 234.253906 C 67.1875 233.585938 66.953125 232.890625 66.78125 232.164062 C 66.605469 231.4375 66.496094 230.695312 66.449219 229.9375 C 66.402344 229.183594 66.421875 228.425781 66.503906 227.671875 C 66.585938 226.914062 66.730469 226.171875 66.941406 225.441406 C 67.148438 224.714844 67.414062 224.015625 67.742188 223.34375 C 68.066406 222.671875 68.445312 222.039062 68.875 221.449219 C 69.308594 220.859375 69.78125 220.324219 70.304688 219.839844 C 70.824219 219.355469 71.375 218.929688 71.964844 218.570312 C 72.554688 218.207031 73.164062 217.914062 73.800781 217.691406 C 74.433594 217.46875 75.078125 217.316406 75.734375 217.238281 C 76.390625 217.160156 77.046875 217.15625 77.699219 217.226562 C 78.351562 217.300781 78.992188 217.445312 79.613281 217.660156 C 80.238281 217.878906 80.835938 218.164062 81.40625 218.519531 C 81.980469 218.875 82.511719 219.292969 83.011719 219.769531 C 83.507812 220.25 83.957031 220.78125 84.359375 221.367188 C 84.761719 221.953125 85.113281 222.582031 85.40625 223.25 C 85.699219 223.917969 85.933594 224.613281 86.109375 225.339844 C 86.28125 226.066406 86.390625 226.808594 86.4375 227.566406 C 86.484375 228.320312 86.464844 229.078125 86.382812 229.832031 Z M 86.382812 229.832031 " fill-opacity="1" fill-rule="nonzero"/><path fill="#ffffff" d="M 243.890625 268.828125 C 243.816406 269.503906 243.710938 270.175781 243.582031 270.84375 C 243.453125 271.507812 243.292969 272.167969 243.105469 272.820312 C 242.921875 273.472656 242.707031 274.113281 242.46875 274.742188 C 242.226562 275.371094 241.960938 275.984375 241.667969 276.585938 C 241.378906 277.1875 241.0625 277.769531 240.722656 278.335938 C 240.382812 278.90625 240.019531 279.453125 239.632812 279.980469 C 239.246094 280.507812 238.839844 281.011719 238.414062 281.492188 C 237.988281 281.976562 237.539062 282.433594 237.074219 282.867188 C 236.609375 283.300781 236.128906 283.710938 235.632812 284.089844 C 235.132812 284.46875 234.621094 284.820312 234.09375 285.144531 C 233.566406 285.46875 233.03125 285.761719 232.480469 286.023438 C 231.929688 286.285156 231.371094 286.519531 230.804688 286.71875 C 230.238281 286.917969 229.664062 287.085938 229.082031 287.222656 C 228.503906 287.359375 227.921875 287.460938 227.332031 287.53125 C 226.746094 287.597656 226.160156 287.636719 225.570312 287.640625 C 224.984375 287.640625 224.398438 287.613281 223.8125 287.546875 C 223.230469 287.484375 222.652344 287.386719 222.078125 287.257812 C 221.503906 287.128906 220.9375 286.96875 220.378906 286.773438 C 219.820312 286.578125 219.273438 286.351562 218.738281 286.09375 C 218.199219 285.835938 217.675781 285.550781 217.164062 285.234375 C 216.652344 284.914062 216.15625 284.570312 215.675781 284.195312 C 215.195312 283.820312 214.734375 283.417969 214.289062 282.988281 C 213.847656 282.558594 213.421875 282.105469 213.015625 281.625 C 212.613281 281.148438 212.230469 280.648438 211.871094 280.125 C 211.507812 279.601562 211.171875 279.058594 210.859375 278.492188 C 210.546875 277.929688 210.257812 277.347656 209.996094 276.75 C 209.730469 276.152344 209.496094 275.542969 209.285156 274.914062 C 209.074219 274.289062 208.890625 273.648438 208.738281 273 C 208.582031 272.351562 208.453125 271.691406 208.355469 271.027344 C 208.257812 270.359375 208.1875 269.6875 208.144531 269.011719 C 208.105469 268.335938 208.089844 267.660156 208.109375 266.980469 C 208.125 266.300781 208.167969 265.621094 208.242188 264.945312 C 208.316406 264.269531 208.417969 263.597656 208.550781 262.929688 C 208.679688 262.261719 208.839844 261.601562 209.023438 260.949219 C 209.210938 260.300781 209.425781 259.660156 209.664062 259.03125 C 209.902344 258.402344 210.171875 257.785156 210.460938 257.183594 C 210.753906 256.585938 211.070312 256 211.410156 255.433594 C 211.75 254.867188 212.113281 254.320312 212.496094 253.792969 C 212.882812 253.265625 213.289062 252.761719 213.71875 252.277344 C 214.144531 251.792969 214.589844 251.335938 215.054688 250.902344 C 215.519531 250.46875 216.003906 250.0625 216.5 249.683594 C 217 249.300781 217.511719 248.949219 218.035156 248.628906 C 218.5625 248.304688 219.101562 248.011719 219.652344 247.75 C 220.199219 247.484375 220.757812 247.253906 221.328125 247.054688 C 221.894531 246.851562 222.46875 246.683594 223.046875 246.550781 C 223.628906 246.414062 224.210938 246.3125 224.796875 246.242188 C 225.386719 246.171875 225.972656 246.136719 226.5625 246.132812 C 227.148438 246.128906 227.734375 246.160156 228.320312 246.222656 C 228.902344 246.285156 229.480469 246.382812 230.054688 246.511719 C 230.628906 246.644531 231.195312 246.804688 231.753906 247 C 232.308594 247.195312 232.859375 247.417969 233.394531 247.675781 C 233.933594 247.933594 234.457031 248.222656 234.96875 248.539062 C 235.480469 248.855469 235.972656 249.203125 236.453125 249.578125 C 236.933594 249.953125 237.398438 250.355469 237.839844 250.785156 C 238.285156 251.210938 238.710938 251.667969 239.113281 252.144531 C 239.519531 252.625 239.902344 253.125 240.261719 253.648438 C 240.621094 254.171875 240.960938 254.714844 241.273438 255.277344 C 241.585938 255.839844 241.875 256.421875 242.136719 257.019531 C 242.398438 257.617188 242.636719 258.230469 242.847656 258.855469 C 243.054688 259.484375 243.238281 260.121094 243.394531 260.773438 C 243.550781 261.421875 243.675781 262.078125 243.773438 262.746094 C 243.875 263.410156 243.945312 264.082031 243.984375 264.757812 C 244.027344 265.433594 244.039062 266.113281 244.023438 266.792969 C 244.007812 267.472656 243.960938 268.148438 243.890625 268.828125 Z M 243.890625 268.828125 " fill-opacity="1" fill-rule="nonzero"/></svg>